<?xml version="1.0" encoding="UTF-8" standalone="no"?>
<!-- Uploaded to: SVG Repo, www.svgrepo.com, Generator: SVG Repo Mixer Tools -->

<svg
   height="800"
   width="524.89374"
   version="1.1"
   id="_x34_"
   viewBox="0 0 335.93199 512"
   xml:space="preserve"
   sodipodi:docname="light-bulb-part-2-svgrepo-com.svg"
   inkscape:version="1.2.2 (732a01da63, 2022-12-09)"
   xmlns:inkscape="http://www.inkscape.org/namespaces/inkscape"
   xmlns:sodipodi="http://sodipodi.sourceforge.net/DTD/sodipodi-0.dtd"
   xmlns="http://www.w3.org/2000/svg"
   xmlns:svg="http://www.w3.org/2000/svg"><defs
   id="defs43" /><sodipodi:namedview
   id="namedview41"
   pagecolor="#ffffff"
   bordercolor="#000000"
   borderopacity="0.25"
   inkscape:showpageshadow="2"
   inkscape:pageopacity="0.0"
   inkscape:pagecheckerboard="0"
   inkscape:deskcolor="#d1d1d1"
   showgrid="false"
   inkscape:zoom="0.71064232"
   inkscape:cx="357.42313"
   inkscape:cy="394.71334"
   inkscape:window-width="1920"
   inkscape:window-height="991"
   inkscape:window-x="-9"
   inkscape:window-y="-9"
   inkscape:window-maximized="1"
   inkscape:current-layer="_x34_" />
<g
   id="g38">
	<g
   id="g32">
		<g
   id="g28">
			<path
   style="fill:#5c4640"
   d="m 189.677,511.985 h -43.422 c -3.5,0 -25.302,-6.363 -25.302,-6.363 l -12.626,-28.203 c 0,-0.036 0.029,-0.066 0.066,-0.066 h 119.145 c 0.037,0 0.067,0.03 0.067,0.067 l -12.626,28.202 c 0,0 -21.802,6.363 -25.302,6.363 z"
   id="path2" />
			<path
   style="fill:#f09292"
   d="m 335.932,167.966 c 0,46.372 -18.839,88.331 -49.204,118.762 -30.366,30.365 -39.39,41.3 -39.39,68.043 H 88.594 c 0,-26.743 -9.024,-37.678 -39.39,-68.043 C 18.839,256.297 0,214.338 0,167.966 0,149.852 2.832,132.463 8.234,116.127 16.468,90.57 30.696,67.713 49.205,49.204 67.714,30.695 90.571,16.467 116.128,8.234 132.463,2.833 149.852,0 167.966,0 c 34.318,0 66.199,10.276 92.81,27.994 9.353,6.191 18.048,13.306 25.952,21.21 7.904,7.905 15.018,16.599 21.21,25.953 17.719,26.61 27.994,58.492 27.994,92.809 z"
   id="path4" />
			<polygon
   style="fill:#d0be86"
   points="242.398,439.544 240.356,468.33 238.973,488.156 96.959,488.156 96.103,475.904 95.576,468.33 93.534,439.544 93.468,439.544 93.007,432.168 90.9,403.316 90.372,395.94 88.331,367.154 87.474,354.771 248.458,354.771 247.602,367.154 245.56,395.94 245.033,403.316 242.925,432.168 "
   id="polygon6" />
			<g
   id="g12">
				<path
   style="fill:#f8cdcd"
   d="m 153.515,334.638 c -2.187,0.27 -4.394,-0.867 -5.387,-2.968 l -45.534,-96.333 c -1.239,-2.621 -0.118,-5.75 2.502,-6.989 2.62,-1.24 5.75,-0.119 6.989,2.503 l 45.534,96.334 c 1.239,2.621 0.118,5.75 -2.503,6.989 -0.519,0.244 -1.059,0.397 -1.601,0.464 z"
   id="path8" />
				<path
   style="fill:#f8cdcd"
   d="m 182.417,334.638 c 2.187,0.27 4.394,-0.867 5.387,-2.968 l 45.534,-96.333 c 1.239,-2.621 0.118,-5.75 -2.503,-6.989 -2.62,-1.24 -5.75,-0.119 -6.989,2.503 l -45.534,96.334 c -1.239,2.621 -0.118,5.75 2.502,6.989 0.521,0.244 1.061,0.397 1.603,0.464 z"
   id="path10" />
			</g>
			<g
   id="g26">
				<path
   style="fill:#fdece2"
   d="m 253.925,369.46 v 24.239 c 0,1.251 -1.054,2.24 -2.306,2.24 H 84.313 c -1.251,0 -2.306,-0.989 -2.306,-2.24 V 369.46 c 0,-1.252 1.054,-2.306 2.306,-2.306 H 251.62 c 1.251,0 2.305,1.054 2.305,2.306 z"
   id="path14" />
				<path
   style="fill:#fdece2"
   d="m 253.267,404.699 v 26.151 c 0,0.724 -0.593,1.318 -1.317,1.318 H 83.983 c -0.724,0 -1.317,-0.593 -1.317,-1.318 v -26.151 c 0,-0.79 0.593,-1.383 1.317,-1.383 h 167.966 c 0.725,0 1.318,0.593 1.318,1.383 z"
   id="path16" />
				<path
   style="fill:#fdece2"
   d="m 251.093,442.048 v 23.778 c 0,1.384 -1.186,2.504 -2.569,2.504 H 87.408 c -1.383,0 -2.569,-1.12 -2.569,-2.504 v -23.778 c 0,-1.384 1.186,-2.504 2.569,-2.504 h 161.116 c 1.383,0 2.569,1.12 2.569,2.504 z"
   id="path18" />
				<path
   style="opacity:0.68;fill:#ffffff"
   d="M 142.409,367.154 V 395.94 H 84.313 c -1.251,0 -2.306,-0.989 -2.306,-2.24 v -24.24 c 0,-1.252 1.054,-2.306 2.306,-2.306 z"
   id="path20" />
				<path
   style="opacity:0.68;fill:#ffffff"
   d="m 142.409,403.316 v 28.851 H 83.983 c -0.724,0 -1.317,-0.593 -1.317,-1.318 v -26.151 c 0,-0.79 0.593,-1.383 1.317,-1.383 h 58.426 z"
   id="path22" />
				<path
   style="opacity:0.68;fill:#ffffff"
   d="m 142.409,439.544 v 28.786 h -55 c -1.383,0 -2.569,-1.12 -2.569,-2.504 v -23.778 c 0,-1.384 1.186,-2.504 2.569,-2.504 z"
   id="path24" />
			</g>
		</g>
		<path
   style="opacity:0.2;fill:#ffffff"
   d="m 167.966,0 v 512 h -21.737 c -1.515,0 -6.587,-1.251 -11.725,-2.568 -1.383,-0.396 -2.767,-0.725 -4.084,-1.12 -0.922,-0.264 -1.779,-0.527 -2.635,-0.724 -3.886,-1.12 -6.85,-1.976 -6.85,-1.976 l -3.886,-8.76 -0.066,-0.066 -3.82,-8.629 H 96.959 l -0.922,-12.318 -0.527,-7.508 h -8.102 c -1.383,0 -2.569,-1.12 -2.569,-2.504 v -23.778 c 0,-1.384 1.186,-2.504 2.569,-2.504 h 6.06 l -0.527,-7.376 h -8.958 c -0.724,0 -1.317,-0.593 -1.317,-1.318 V 404.7 c 0,-0.79 0.593,-1.383 1.317,-1.383 H 90.9 l -0.527,-7.376 h -6.06 c -1.251,0 -2.306,-0.989 -2.306,-2.24 V 369.46 c 0,-1.252 1.054,-2.306 2.306,-2.306 h 4.018 l -0.856,-12.383 h 1.12 c 0,-26.743 -9.024,-37.678 -39.39,-68.043 C 18.839,256.297 0,214.338 0,167.966 0,149.852 2.832,132.463 8.234,116.127 16.468,90.57 30.696,67.713 49.205,49.204 67.714,30.695 90.571,16.467 116.128,8.234 132.463,2.833 149.852,0 167.966,0 Z"
   id="path30" />
	</g>
	<path
   style="opacity:0.06;fill:#5e1435"
   d="m 244.001,354.859 -4.699,-3.823 c 0.198,-27.534 9.617,-38.665 41.102,-69.689 31.486,-31.024 51.246,-74.103 51.641,-121.792 0.132,-20.617 -3.293,-40.378 -9.749,-58.69 8.76,20.353 13.635,42.815 13.635,66.396 0,46.372 -18.839,88.331 -49.204,118.762 -30.366,30.366 -39.39,41.3 -39.39,68.043 z"
   id="path34" />
	
		<ellipse
   transform="matrix(0.6904,-0.7234,0.7234,0.6904,-40.4284,88.0505)"
   style="opacity:0.3;fill:#ffffff"
   cx="82.666"
   cy="91.263"
   rx="46.679001"
   ry="42.023998"
   id="ellipse36" />
</g>
</svg>
